#!OML:ASF H:\Pregnant\Project 1\Capture day 1\Session 1\femalepreg.ASF
:FULLY-SPECIFIED
:DEGREES
457
root 7.10096 15.8731 18.9705 -162.81 -13.0499 -176.658
lowerback -17.9033 5.60898 4.66102
upperback -8.10056 5.53999 -2.14155
thorax 1.97258 2.1165 -3.8174
lowerneck -3.34649 19.4789 19.4067
upperneck 12.1964 26.4906 -11.8511
head 8.45391 12.921 -3.61998
rclavicle -2.87741e-014 2.18663e-014
rhumerus -34.7006 8.99778 -91.6172
rradius 73.6032
rwrist -67.2176
rhand -37.8869 -77.9242
rfingers 7.12502
rthumb -10.9301 107.62
lclavicle -2.87741e-014 2.18663e-014
lhumerus -29.1811 -49.3138 96.9004
lradius 62.0209
lwrist 77.3931
lhand -37.4071 25.0327
lfingers 7.12502
lthumb -10.4673 54.7521
rfemur -19.3931 18.545 18.6598
rtibia 18.7253
rfoot -9.88049 -30.8535
rtoes -10.1972
lfemur -29.1783 -8.91309 -12.9304
ltibia 24.211
lfoot -10.2919 6.2187
ltoes -21.2847
458
root 7.1093 15.8706 18.9648 -162.94 -13.2761 -176.679
lowerback -17.9339 5.60368 4.67649
upperback -8.06811 5.53694 -2.16109
thorax 2.02585 2.11956 -3.84428
lowerneck -3.2761 19.4113 19.4263
upperneck 12.3038 26.3933 -11.7395
head 8.44983 12.8852 -3.6123
rclavicle 2.89232e-014 4.21423e-014
rhumerus -34.6465 8.87482 -91.5577
rradius 73.3521
rwrist -66.9727
rhand -37.9997 -77.8065
rfingers 7.12502
rthumb -11.039 107.496
lclavicle 2.89232e-014 4.21423e-014
lhumerus -29.5971 -49.3245 96.8572
lradius 62.1357
lwrist 76.9163
lhand -37.4388 24.9547
lfingers 7.12502
lthumb -10.4979 54.6726
rfemur -19.1715 18.5285 18.7624
rtibia 18.7175
rfoot -9.98847 -31.0304
rtoes -9.99374
lfemur -29.0819 -8.95554 -12.9336
ltibia 24.2126
lfoot -10.3102 6.04034
ltoes -21.3399
459
root 7.11772 15.8681 18.9595 -163.06 -13.5053 -176.692
lowerback -17.9668 5.60482 4.70172
upperback -8.0376 5.5404 -2.18292
thorax 2.07995 2.12543 -3.8776
lowerneck -3.22219 19.3407 19.4362
upperneck 12.4143 26.2893 -11.6242
head 8.44673 12.8453 -3.6021
rclavicle -2.31584e-014 -6.24184e-014
rhumerus -34.6055 8.73685 -91.4864
rradius 73.1106
rwrist -66.7084
rhand -38.1142 -77.6957
rfingers 7.12502
rthumb -11.1494 107.379
lclavicle -2.31584e-014 -6.24184e-014
lhumerus -30.0284 -49.3428 96.8057
lradius 62.2514
lwrist 76.4683
lhand -37.271 24.802
lfingers 7.12502
lthumb -10.3361 54.528
rfemur -18.9587 18.501 18.8712
rtibia 18.7006
rfoot -10.0604 -31.198
rtoes -9.86838
lfemur -29.0074 -9.00223 -12.9235
ltibia 24.228
lfoot -10.3338 5.86588
ltoes -21.3919
460
root 7.12603 15.8657 18.9544 -163.167 -13.7261 -176.694
lowerback -18.0139 5.60976 4.73086
upperback -8.01967 5.54401 -2.19736
thorax 2.12766 2.12956 -3.90485
lowerneck -3.12829 19.2677 19.4614
upperneck 12.5182 26.1891 -11.5261
head 8.44019 12.8085 -3.60173
rclavicle 4.33848e-014 2.42517e-014
rhumerus -34.6052 8.60781 -91.4099
rradius 72.8801
rwrist -66.4256
rhand -38.2341 -77.5873
rfingers 7.12502
rthumb -11.2651 107.265
lclavicle 4.33848e-014 2.42517e-014
lhumerus -30.5198 -49.3363 96.7766
lradius 62.3787
lwrist 76.0767
lhand -37.0181 24.6274
lfingers 7.12502
lthumb -10.0921 54.3654
rfemur -18.7591 18.4532 18.9876
rtibia 18.6676
rfoot -10.1269 -31.3376
rtoes -9.75244
lfemur -28.9591 -9.05298 -12.8957
ltibia 24.2605
lfoot -10.3618 5.70864
ltoes -21.4275
461
root 7.13461 15.8633 18.9488 -163.27 -13.9312 -176.683
lowerback -18.0776 5.62025 4.76027
upperback -8.00105 5.55287 -2.20385
thorax 2.18445 2.13622 -3.92167
lowerneck -3.03558 19.1982 19.4871
upperneck 12.6256 26.0949 -11.4343
head 8.43697 12.7738 -3.60169
rclavicle -9.42239e-014 -8.74653e-015
rhumerus -34.6239 8.48062 -91.3224
rradius 72.6557
rwrist -66.1288
rhand -38.3588 -77.4853
rfingers 7.12502
rthumb -11.3854 107.156
lclavicle -9.42239e-014 -8.74653e-015
lhumerus -31.0392 -49.3189 96.7499
lradius 62.5135
lwrist 75.7502
lhand -36.6885 24.4199
lfingers 7.12502
lthumb -9.77408 54.1731
rfemur -18.5576 18.4224 19.1146
rtibia 18.6139
rfoot -10.1897 -31.4762
rtoes -9.62239
lfemur -28.9233 -9.08637 -12.8533
ltibia 24.3126
lfoot -10.4034 5.55527
ltoes -21.4603
462
root 7.14292 15.8612 18.9429 -163.355 -14.1137 -176.657
lowerback -18.1616 5.64413 4.79946
upperback -7.976 5.57662 -2.20664
thorax 2.26067 2.15071 -3.93527
lowerneck -2.99976 19.1381 19.4801
upperneck 12.7454 26.0059 -11.3292
head 8.44187 12.7384 -3.58736
rclavicle -8.04581e-014 -2.42517e-014
rhumerus -34.6335 8.34626 -91.2124
rradius 72.43
rwrist -65.8228
rhand -38.4895 -77.3826
rfingers 7.12502
rthumb -11.5114 107.047
lclavicle -8.04581e-014 -2.42517e-014
lhumerus -31.5533 -49.3062 96.7101
lradius 62.6592
lwrist 75.5114
lhand -36.3682 24.1881
lfingers 7.12502
lthumb -9.46512 53.9555
rfemur -18.3734 18.383 19.2471
rtibia 18.5388
rfoot -10.2337 -31.5843
rtoes -9.5111
lfemur -28.9131 -9.10568 -12.7953
ltibia 24.3829
lfoot -10.4535 5.41776
ltoes -21.4892
463
root 7.15106 15.8593 18.9369 -163.428 -14.2779 -176.62
lowerback -18.2633 5.67284 4.83961
upperback -7.9413 5.60579 -2.19784
thorax 2.35584 2.16893 -3.93439
lowerneck -3.00385 19.0894 19.4441
upperneck 12.8701 25.9294 -11.2241
head 8.45309 12.7057 -3.56354
rclavicle 2.75814e-014 -3.18055e-015
rhumerus -34.6294 8.23134 -91.0773
rradius 72.2007
rwrist -65.5269
rhand -38.6229 -77.2724
rfingers 7.12502
rthumb -11.64 106.929
lclavicle 2.75814e-014 -3.18055e-015
lhumerus -32.0626 -49.2803 96.6608
lradius 62.8193
lwrist 75.3759
lhand -36.1201 24.0194
lfingers 7.12502
lthumb -9.2257 53.7975
rfemur -18.1979 18.3474 19.3829
rtibia 18.4433
rfoot -10.2634 -31.6764
rtoes -9.3988
lfemur -28.921 -9.11428 -12.7259
ltibia 24.4688
lfoot -10.511 5.29373
ltoes -21.519
464
root 7.15905 15.8576 18.9309 -163.491 -14.4301 -176.577
lowerback -18.3753 5.70582 4.88075
upperback -7.89655 5.6406 -2.18111
thorax 2.46696 2.19112 -3.92325
lowerneck -3.04997 19.0491 19.3777
upperneck 12.9954 25.8608 -11.1196
head 8.46875 12.6737 -3.53113
rclavicle -4.07509e-015 4.77083e-015
rhumerus -34.6084 8.12081 -90.9147
rradius 71.9635
rwrist -65.2398
rhand -38.7637 -77.1587
rfingers 7.12502
rthumb -11.7757 106.808
lclavicle -4.07509e-015 4.77083e-015
lhumerus -32.5568 -49.2528 96.6011
lradius 62.9875
lwrist 75.3492
lhand -35.9505 23.847
lfingers 7.12502
lthumb -9.06208 53.6324
rfemur -18.0322 18.3194 19.517
rtibia 18.3321
rfoot -10.2741 -31.7634
rtoes -9.29626
lfemur -28.9449 -9.11685 -12.6499
ltibia 24.5636
lfoot -10.5708 5.17997
ltoes -21.5545
465
root 7.1669 15.8561 18.9252 -163.547 -14.5698 -176.528
lowerback -18.4912 5.74382 4.92471
upperback -7.84168 5.68246 -2.15947
thorax 2.59143 2.21799 -3.90611
lowerneck -3.1546 19.0209 19.2804
upperneck 13.1371 25.8023 -11.006
head 8.49583 12.6429 -3.48465
rclavicle -5.06404e-014 6.75868e-015
rhumerus -34.5721 8.00996 -90.7281
rradius 71.7222
rwrist -64.9721
rhand -38.9144 -77.0488
rfingers 7.12502
rthumb -11.9211 106.689
lclavicle -5.06404e-014 6.75868e-015
lhumerus -33.0301 -49.2241 96.5233
lradius 63.1581
lwrist 75.4136
lhand -35.8429 23.6837
lfingers 7.12502
lthumb -8.95824 53.4735
rfemur -17.8761 18.2998 19.6497
rtibia 18.2109
rfoot -10.2697 -31.845
rtoes -9.19779
lfemur -28.978 -9.10812 -12.57
ltibia 24.6622
lfoot -10.634 5.07101
ltoes -21.5915
466
root 7.17463 15.855 18.9201 -163.592 -14.7051 -176.478
lowerback -18.6057 5.78213 4.96993
upperback -7.80064 5.72175 -2.13666
thorax 2.70015 2.24177 -3.88946
lowerneck -3.2052 18.9893 19.2071
upperneck 13.2544 25.7475 -10.9142
head 8.51281 12.6161 -3.45231
rclavicle -7.60351e-014 2.90226e-014
rhumerus -34.572 7.89842 -90.5393
rradius 71.4812
rwrist -64.7187
rhand -39.0811 -76.9444
rfingers 7.12502
rthumb -12.0818 106.576
lclavicle -7.60351e-014 2.90226e-014
lhumerus -33.5584 -49.1751 96.4675
lradius 63.3365
lwrist 75.5619
lhand -35.8155 23.5407
lfingers 7.12502
lthumb -8.93175 53.3316
rfemur -17.7349 18.2858 19.7767
rtibia 18.0853
rfoot -10.2513 -31.9273
rtoes -9.10539
lfemur -29.0229 -9.09586 -12.4879
ltibia 24.7588
lfoot -10.6939 4.96536
ltoes -21.6324
467
root 7.1823 15.8541 18.9154 -163.632 -14.8384 -176.428
lowerback -18.7097 5.82624 5.02183
upperback -7.76557 5.76787 -2.12342
thorax 2.79938 2.26817 -3.88587
lowerneck -3.25845 18.957 19.1447
upperneck 13.3713 25.6907 -10.8242
head 8.5316 12.5886 -3.42165
rclavicle 1.64991e-014 -2.22639e-014
rhumerus -34.588 7.76473 -90.3459
rradius 71.2392
rwrist -64.4719
rhand -39.2572 -76.8473
rfingers 7.12502
rthumb -12.2516 106.468
lclavicle 1.64991e-014 -2.22639e-014
lhumerus -34.1017 -49.1241 96.4028
lradius 63.4994
lwrist 75.7187
lhand -35.6222 23.3699
lfingers 7.12502
lthumb -8.74523 53.1687
rfemur -17.6025 18.2802 19.898
rtibia 17.9597
rfoot -10.2285 -32.016
rtoes -9.00741
lfemur -29.0724 -9.0819 -12.407
ltibia 24.8508
lfoot -10.7503 4.86011
ltoes -21.6723
468
root 7.1897 15.8534 18.9114 -163.666 -14.97 -176.382
lowerback -18.8025 5.87528 5.08079
upperback -7.74472 5.81832 -2.122
thorax 2.87995 2.29492 -3.89892
lowerneck -3.28037 18.9211 19.1125
upperneck 13.4799 25.6323 -10.745
head 8.54789 12.5625 -3.40069
rclavicle 5.12864e-014 4.85035e-014
rhumerus -34.6419 7.60638 -90.1581
rradius 70.9933
rwrist -64.2023
rhand -39.4397 -76.7535
rfingers 7.12502
rthumb -12.4276 106.364
lclavicle 5.12864e-014 4.85035e-014
lhumerus -34.6932 -49.0669 96.3481
lradius 63.6541
lwrist 75.8977
lhand -35.3556 23.1908
lfingers 7.12502
lthumb -8.48794 53.0002
rfemur -17.4825 18.2702 20.0111
rtibia 17.8395
rfoot -10.2031 -32.101
rtoes -8.91527
lfemur -29.1251 -9.07534 -12.3283
ltibia 24.9341
lfoot -10.7986 4.76397
ltoes -21.6985
469
root 7.19719 15.8526 18.9076 -163.706 -15.0998 -176.343
lowerback -18.8797 5.92406 5.13719
upperback -7.736 5.86862 -2.12924
thorax 2.94027 2.32026 -3.92111
lowerneck -3.24585 18.8793 19.1238
upperneck 13.5701 25.5731 -10.6882
head 8.55757 12.539 -3.39692
rclavicle 1.61513e-014 1.39149e-014
rhumerus -34.7399 7.43459 -89.9818
rradius 70.7443
rwrist -63.9098
rhand -39.624 -76.6639
rfingers 7.12502
rthumb -12.6053 106.264
lclavicle 1.61513e-014 1.39149e-014
lhumerus -35.3418 -48.9993 96.3117
lradius 63.7955
lwrist 76.0934
lhand -35.0694 23.0036
lfingers 7.12502
lthumb -8.21174 52.824
rfemur -17.358 18.276 20.1177
rtibia 17.7285
rfoot -10.1919 -32.2013
rtoes -8.80202
lfemur -29.1634 -9.06249 -12.2606
ltibia 25.0074
lfoot -10.8443 4.66136
ltoes -21.7241
470
root 7.20451 15.8518 18.9042 -163.744 -15.2278 -176.312
lowerback -18.9455 5.97307 5.19216
upperback -7.72846 5.92075 -2.14374
thorax 2.99431 2.3465 -3.95047
lowerneck -3.2073 18.837 19.1444
upperneck 13.6473 25.514 -10.6412
head 8.56486 12.5157 -3.39772
rclavicle 1.68967e-014 2.66371e-014
rhumerus -34.8525 7.25618 -89.8065
rradius 70.4907
rwrist -63.5878
rhand -39.8041 -76.574
rfingers 7.12502
rthumb -12.7789 106.163
lclavicle 1.68967e-014 2.66371e-014
lhumerus -36.0043 -48.9264 96.2736
lradius 63.9184
lwrist 76.3051
lhand -34.7536 22.7754
lfingers 7.12502
lthumb -7.90696 52.6076
rfemur -17.2414 18.2828 20.2126
rtibia 17.6301
rfoot -10.1932 -32.3033
rtoes -8.67789
lfemur -29.1952 -9.05413 -12.2027
ltibia 25.068
lfoot -10.8818 4.56276
ltoes -21.7387
471
root 7.21158 15.851 18.9013 -163.782 -15.3498 -176.29
lowerback -19.0062 6.01985 5.24119
upperback -7.71775 5.97196 -2.15879
thorax 3.04867 2.3728 -3.97738
lowerneck -3.13152 18.7884 19.184
upperneck 13.6815 25.4551 -10.6362
head 8.55994 12.4928 -3.418
rclavicle 4.69132e-014 5.56597e-015
rhumerus -34.9725 7.09866 -89.6301
rradius 70.2327
rwrist -63.2406
rhand -39.973 -76.474
rfingers 7.12502
rthumb -12.9418 106.053
lclavicle 4.69132e-014 5.56597e-015
lhumerus -36.6669 -48.832 96.2302
lradius 64.0132
lwrist 76.5042
lhand -34.4195 22.556
lfingers 7.12502
lthumb -7.58449 52.4001
rfemur -17.133 18.2814 20.2971
rtibia 17.5456
rfoot -10.2022 -32.3957
rtoes -8.55856
lfemur -29.2183 -9.05087 -12.1549
ltibia 25.1159
lfoot -10.9117 4.47243
ltoes -21.7536
